<svg xmlns="http://www.w3.org/2000/svg" xmlns:xlink="http://www.w3.org/1999/xlink" width="40" zoomAndPan="magnify" viewBox="0 0 30 30.000001" height="40" preserveAspectRatio="xMidYMid meet" version="1.0"><defs><g/><clipPath id="002fab472d"><path d="M 3 0 L 28 0 L 28 29.03125 L 3 29.03125 Z M 3 0 " clip-rule="nonzero"/></clipPath><clipPath id="9a67a788ad"><rect x="0" width="25" y="0" height="30"/></clipPath></defs><g clip-path="url(#002fab472d)"><g transform="matrix(1, 0, 0, 1, 3, 0.000000000000005692)"><g clip-path="url(#9a67a788ad)"><g fill="#ffffff" fill-opacity="1"><g transform="translate(2.899477, 11.914407)"><g><path d="M 8.171875 -7.558594 C 8.425781 -7.558594 8.632812 -7.640625 8.800781 -7.804688 C 8.972656 -7.96875 9.0625 -8.179688 9.0625 -8.417969 C 9.0625 -8.65625 8.972656 -8.859375 8.800781 -9.023438 C 8.632812 -9.1875 8.425781 -9.269531 8.171875 -9.269531 C 7.851562 -9.269531 7.371094 -9.289062 6.734375 -9.332031 C 6.089844 -9.375 5.613281 -9.402344 5.296875 -9.402344 C 5.039062 -9.402344 4.652344 -9.394531 4.140625 -9.386719 C 3.632812 -9.375 3.246094 -9.375 2.996094 -9.375 C 2.738281 -9.375 2.402344 -9.394531 1.984375 -9.445312 C 1.460938 -9.507812 1.128906 -9.539062 0.984375 -9.550781 C 0.695312 -9.570312 0.464844 -9.476562 0.289062 -9.273438 C 0.140625 -9.097656 0.0625 -8.910156 0.0625 -8.695312 C 0.0625 -8.253906 0.296875 -7.984375 0.761719 -7.867188 C 1.3125 -7.730469 2.054688 -7.667969 2.996094 -7.667969 L 3.324219 -7.667969 C 3.335938 -7.246094 3.398438 -6.480469 3.5 -5.378906 C 3.585938 -4.414062 3.632812 -3.652344 3.632812 -3.089844 C 3.632812 -2.886719 3.644531 -2.597656 3.667969 -2.207031 C 3.695312 -1.816406 3.714844 -1.519531 3.714844 -1.332031 C 3.714844 -1.265625 3.703125 -1.171875 3.683594 -1.054688 C 3.65625 -0.933594 3.652344 -0.84375 3.652344 -0.789062 C 3.652344 -0.535156 3.746094 -0.335938 3.945312 -0.171875 C 4.125 -0.0195312 4.324219 0.0507812 4.558594 0.0507812 C 4.875 0.0507812 5.121094 -0.105469 5.296875 -0.433594 C 5.429688 -0.6875 5.5 -0.972656 5.5 -1.285156 C 5.5 -1.425781 5.480469 -1.640625 5.453125 -1.921875 C 5.421875 -2.199219 5.410156 -2.414062 5.410156 -2.558594 C 5.410156 -3.191406 5.367188 -4.046875 5.277344 -5.132812 C 5.175781 -6.355469 5.121094 -7.214844 5.105469 -7.691406 C 5.460938 -7.691406 5.972656 -7.671875 6.640625 -7.628906 C 7.332031 -7.578125 7.84375 -7.558594 8.171875 -7.558594 Z M 8.171875 -7.558594 "/></g></g></g><g fill="#ffffff" fill-opacity="1"><g transform="translate(13.02472, 11.914407)"><g><path d="M 6.992188 -8.082031 C 7.25 -8.082031 7.464844 -8.179688 7.636719 -8.375 C 7.785156 -8.539062 7.863281 -8.734375 7.863281 -8.953125 C 7.863281 -9.339844 7.667969 -9.601562 7.28125 -9.753906 C 6.644531 -9.992188 5.800781 -10.121094 4.742188 -10.121094 C 4.351562 -10.121094 3.933594 -10.089844 3.492188 -10.027344 C 3.050781 -9.960938 2.589844 -9.875 2.105469 -9.753906 C 1.949219 -9.855469 1.777344 -9.910156 1.59375 -9.910156 C 1.003906 -9.910156 0.710938 -9.589844 0.710938 -8.953125 C 0.710938 -8.800781 0.730469 -8.585938 0.777344 -8.296875 C 0.8125 -8.007812 0.839844 -7.792969 0.839844 -7.648438 C 0.839844 -7.085938 0.792969 -6.242188 0.710938 -5.113281 C 0.628906 -3.984375 0.59375 -3.140625 0.59375 -2.578125 C 0.59375 -1.21875 0.820312 -0.335938 1.28125 0.0703125 C 1.695312 0.441406 2.585938 0.625 3.960938 0.625 C 5.285156 0.625 6.152344 0.585938 6.578125 0.503906 C 7.066406 0.417969 7.3125 0.132812 7.3125 -0.339844 C 7.3125 -0.617188 7.214844 -0.839844 7.019531 -0.996094 C 6.839844 -1.136719 6.632812 -1.203125 6.394531 -1.203125 C 6.3125 -1.203125 6.191406 -1.191406 6.027344 -1.167969 C 5.863281 -1.140625 5.738281 -1.128906 5.65625 -1.128906 C 5.390625 -1.128906 5 -1.121094 4.476562 -1.109375 C 3.945312 -1.097656 3.554688 -1.089844 3.296875 -1.089844 C 2.8125 -1.089844 2.546875 -1.117188 2.503906 -1.171875 C 2.402344 -1.285156 2.359375 -1.753906 2.359375 -2.578125 C 2.359375 -2.90625 2.371094 -3.335938 2.402344 -3.871094 C 3.601562 -3.964844 4.503906 -4.046875 5.101562 -4.117188 C 5.769531 -4.175781 6.265625 -4.21875 6.609375 -4.242188 C 7.136719 -4.304688 7.410156 -4.589844 7.410156 -5.09375 C 7.410156 -5.351562 7.320312 -5.5625 7.144531 -5.71875 C 6.96875 -5.875 6.753906 -5.957031 6.507812 -5.957031 C 6.292969 -5.957031 5.78125 -5.914062 4.980469 -5.839844 C 3.570312 -5.699219 2.75 -5.617188 2.515625 -5.605469 C 2.554688 -6.703125 2.574219 -7.535156 2.574219 -8.097656 C 2.976562 -8.195312 3.359375 -8.273438 3.726562 -8.324219 C 4.085938 -8.375 4.425781 -8.398438 4.742188 -8.398438 C 5.382812 -8.398438 6.046875 -8.304688 6.726562 -8.121094 C 6.816406 -8.097656 6.902344 -8.082031 6.992188 -8.082031 Z M 6.992188 -8.082031 "/></g></g></g><g fill="#ffffff" fill-opacity="1"><g transform="translate(0.975285, 25.790267)"><g><path d="M 3.335938 -4.980469 C 3.59375 -3.796875 3.890625 -2.660156 4.21875 -1.589844 L 4.570312 -0.417969 C 4.78125 0.0507812 5.082031 0.285156 5.480469 0.285156 C 5.875 0.285156 6.183594 0.0898438 6.414062 -0.300781 C 6.578125 -0.59375 6.742188 -0.972656 6.898438 -1.429688 L 7.277344 -2.589844 C 7.710938 -3.796875 8.027344 -4.679688 8.214844 -5.246094 C 8.449219 -3.828125 8.667969 -2.742188 8.871094 -1.984375 L 9.226562 -0.460938 C 9.445312 0.195312 9.785156 0.523438 10.246094 0.523438 C 10.472656 0.523438 10.679688 0.449219 10.871094 0.296875 C 11.066406 0.132812 11.167969 -0.0742188 11.167969 -0.328125 C 11.167969 -0.441406 10.976562 -1.148438 10.605469 -2.445312 C 10.234375 -3.71875 9.925781 -5.257812 9.683594 -7.050781 C 9.578125 -7.820312 9.476562 -8.34375 9.386719 -8.625 C 9.160156 -9.320312 8.820312 -9.671875 8.367188 -9.671875 C 7.886719 -9.671875 7.542969 -9.371094 7.3125 -8.769531 L 6.960938 -7.320312 C 6.542969 -5.824219 6.101562 -4.457031 5.625 -3.210938 C 5.257812 -4.46875 4.980469 -5.65625 4.796875 -6.753906 C 4.601562 -7.882812 4.421875 -8.632812 4.257812 -8.996094 C 4.074219 -9.382812 3.789062 -9.578125 3.410156 -9.578125 C 3.070312 -9.578125 2.792969 -9.425781 2.574219 -9.128906 C 2.351562 -8.832031 2.148438 -8.242188 1.960938 -7.351562 C 1.835938 -6.703125 1.707031 -6.054688 1.589844 -5.410156 C 1.550781 -5.246094 1.316406 -4.433594 0.890625 -2.96875 C 0.597656 -1.984375 0.453125 -1.160156 0.453125 -0.480469 C 0.453125 -0.246094 0.523438 -0.0429688 0.667969 0.121094 C 0.832031 0.320312 1.066406 0.417969 1.355469 0.417969 C 1.816406 0.417969 2.132812 0.121094 2.308594 -0.480469 C 2.382812 -0.945312 2.460938 -1.417969 2.542969 -1.898438 C 2.882812 -3.273438 3.144531 -4.300781 3.335938 -4.980469 Z M 3.335938 -4.980469 "/></g></g></g><g fill="#ffffff" fill-opacity="1"><g transform="translate(13.51302, 25.790267)"><g><path d="M 7.277344 -1.089844 C 7.96875 -2.035156 8.429688 -3.222656 8.667969 -4.660156 C 8.820312 -5.585938 8.902344 -6.878906 8.902344 -8.542969 C 8.902344 -8.734375 8.847656 -8.902344 8.738281 -9.0625 C 8.59375 -9.269531 8.378906 -9.375 8.097656 -9.375 C 7.742188 -9.375 7.476562 -9.230469 7.289062 -8.941406 C 7.148438 -8.71875 7.082031 -8.492188 7.082031 -8.261719 C 7.082031 -6.46875 6.980469 -5.082031 6.777344 -4.097656 C 6.386719 -2.1875 5.644531 -1.242188 4.535156 -1.261719 C 3.863281 -1.265625 3.449219 -1.34375 3.273438 -1.480469 C 2.933594 -1.746094 2.671875 -2.214844 2.496094 -2.882812 C 2.34375 -3.4375 2.269531 -4.042969 2.269531 -4.699219 C 2.269531 -4.898438 2.277344 -5.203125 2.300781 -5.613281 C 2.320312 -6.015625 2.332031 -6.324219 2.332031 -6.527344 C 2.332031 -6.765625 2.332031 -7.132812 2.339844 -7.617188 C 2.34375 -8.101562 2.351562 -8.46875 2.351562 -8.707031 C 2.351562 -8.960938 2.25 -9.160156 2.0625 -9.324219 C 1.886719 -9.476562 1.675781 -9.550781 1.449219 -9.550781 C 1.152344 -9.550781 0.925781 -9.351562 0.761719 -8.960938 C 0.636719 -8.65625 0.582031 -8.34375 0.582031 -8.007812 C 0.582031 -7.84375 0.574219 -7.597656 0.566406 -7.269531 C 0.554688 -6.941406 0.554688 -6.703125 0.554688 -6.539062 C 0.554688 -6.332031 0.542969 -6.023438 0.523438 -5.617188 C 0.5 -5.207031 0.492188 -4.898438 0.492188 -4.699219 C 0.492188 -2.542969 1.039062 -1.035156 2.144531 -0.164062 C 2.660156 0.253906 3.460938 0.453125 4.535156 0.453125 C 5.089844 0.453125 5.636719 0.289062 6.167969 -0.0507812 C 6.59375 -0.328125 6.96875 -0.675781 7.277344 -1.089844 Z M 7.277344 -1.089844 "/></g></g></g></g></g></g></svg>