<svg id="Layer_1" data-name="Layer 1" xmlns="http://www.w3.org/2000/svg" fill="currentColor" viewBox="0 0 2160 2160"><defs><style></style></defs><title>lasoo svg icon 1</title><path class="cls-1" d="M1287.93,818.84q-52.52-93.72-105.19-187.33c173.18-181.84,507.92-197.09,732.23-33.36,215.85,157.57,301.46,444.31,206.77,692.56-95.06,249.22-344,409.29-599.2,385.35-278.9-26.16-496.92-223.06-543.44-493.27-8.54-49.59-7.46-100.75-13.79-150.81-23.56-186.24-185.25-328.81-370-327.64s-352,150.76-369.2,330.26c-18.95,198,103.31,371.55,290.57,412.52,122.07,26.71,209.27,1.22,355.32-105.31l108.47,190.73C866.54,1637.4,730.18,1681.74,578.52,1677c-304-9.54-555.13-249.77-576.91-547.09C-20.78,824.37,193,546.78,493.67,491.05c348.58-64.61,686.06,209.58,695.62,565.17,7.64,284.47,246.91,467.38,499,377.82,145.62-51.74,231.16-160.88,247.52-313,17.68-164.48-53.48-292.16-198.34-371-133.58-72.71-266.09-60.86-390.21,28.95-17.72,12.82-35.19,26-52.93,38.79C1292.71,819,1290,818.57,1287.93,818.84Z"/></svg>