<?xml version="1.0" encoding="UTF-8"?>
<svg width="10%" height="10%" version="1.2" viewBox="0 0 750 750" xmlns="http://www.w3.org/2000/svg" zoomAndPan="magnify">
<defs>
<clipPath id="a">
<path d="m48.438 2h636.56v727h-636.56z"/>
</clipPath>
</defs>
<g clip-path="url(#a)">
<path style="stroke:none; fill-rule:evenodd; fill:currentColor; fill-opacity:1;" d="m519.44 139.8c-1.2578-0.046876-2.5156-0.039063-3.7734 0.019531-1.2539 0.0625-2.5078 0.17188-3.7539 0.33594-1.2461 0.16406-2.4844 0.37891-3.7148 0.64453-1.2305 0.26953-2.4453 0.58594-3.6484 0.95312-1.2031 0.36719-2.3906 0.78516-3.5586 1.25-1.168 0.46484-2.3164 0.98047-3.4414 1.5391-1.125 0.5625-2.2266 1.168-3.3008 1.8203-1.0742 0.65625-2.1211 1.3516-3.1406 2.0898-1.0156 0.73828-2 1.5195-2.9531 2.3398-0.95312 0.82422-1.8711 1.6836-2.7539 2.582-0.87891 0.89453-1.7227 1.8281-2.5273 2.7969-0.80469 0.96484-1.5664 1.9648-2.2852 2.9961-0.72266 1.0312-1.3984 2.0898-2.0312 3.1758-0.63281 1.0898-1.2227 2.1992-1.7617 3.3359-0.53906 1.1367-1.0352 2.293-1.4766 3.4688-0.44531 1.1758-0.83984 2.3711-1.1875 3.5781-0.34375 1.2109-0.64062 2.4336-0.88281 3.668-0.24609 1.2344-0.4375 2.4727-0.57812 3.7227s-0.23047 2.5039-0.26562 3.7617c-0.039063 1.2578-0.023438 2.5156 0.042968 3.7695 0.070313 1.2578 0.1875 2.5078 0.35938 3.7539 0.17187 1.2461 0.39453 2.4844 0.66797 3.7109 0.27344 1.2305 0.59766 2.4414 0.97266 3.6445 0.375 1.1992 0.80078 2.3828 1.2734 3.5508 0.47266 1.1641 0.99609 2.3086 1.5625 3.4297 0.57031 1.1211 1.1836 2.2188 1.8438 3.2891 0.65625 1.0742 1.3594 2.1133 2.1055 3.1289 0.74609 1.0117 1.5352 1.9922 2.3594 2.9414 0.82812 0.94531 1.6953 1.8594 2.5977 2.7344s1.8398 1.7109 2.8125 2.5078c0.97266 0.80078 1.9766 1.5547 3.0117 2.2695 1.0352 0.71484 2.0977 1.3867 3.1914 2.0117 6.0586 4.1211 11.387 8.1172 15.992 12.117 4.6055 4 10.059 8.8438 15.996 14.781 10.367 10.383 19.656 21.652 27.871 33.809 8.2148 12.09 15.203 24.855 20.961 38.289 5.9297 13.922 10.371 28.301 13.328 43.141 2.9492 14.715 4.4023 29.582 4.3633 44.59 0 3.7188-0.089844 7.4336-0.27344 11.148s-0.45703 7.4219-0.82031 11.121c-0.36328 3.6992-0.82031 7.3906-1.3672 11.066-0.54297 3.6797-1.1797 7.3398-1.9062 10.988-0.72266 3.6484-1.5391 7.2734-2.4414 10.879-0.90234 3.6094-1.8945 7.1914-2.9727 10.75-1.082 3.5586-2.2461 7.0859-3.5 10.59-1.2539 3.5-2.5898 6.9688-4.0117 10.402-1.4258 3.4336-2.9297 6.832-4.5195 10.195-1.5898 3.3594-3.2617 6.6797-5.0156 9.9609-1.7539 3.2773-3.5859 6.5117-5.4961 9.7031-1.9102 3.1875-3.8984 6.3281-5.9648 9.4219-2.0664 3.0898-4.207 6.1289-6.4219 9.1172-2.2148 2.9844-4.5039 5.9141-6.8594 8.7891-2.3594 2.875-4.7891 5.6914-7.2852 8.4453-2.4961 2.7539-5.0586 5.4453-7.6914 8.0742-2.6289 2.6328-5.3203 5.1953-8.0742 7.6914-2.7539 2.4961-5.5703 4.9258-8.4453 7.2852-2.875 2.3555-5.8047 4.6445-8.7891 6.8594-2.9883 2.2148-6.0273 4.3555-9.1172 6.4219-3.0938 2.0664-6.2344 4.0547-9.4219 5.9648-3.1914 1.9102-6.4258 3.7422-9.7031 5.4961-3.2812 1.7539-6.6016 3.4258-9.9609 5.0156-3.3633 1.5898-6.7617 3.0938-10.195 4.5195-3.4336 1.4219-6.9023 2.7578-10.402 4.0117-3.5039 1.2539-7.0312 2.418-10.59 3.4961-3.5586 1.082-7.1406 2.0742-10.746 2.9766-3.6094 0.90234-7.2344 1.7188-10.883 2.4414-3.6445 0.72656-7.3086 1.3633-10.988 1.9062-3.6758 0.54688-7.3672 1.0039-11.066 1.3672-3.6992 0.36328-7.4062 0.63672-11.121 0.82031-3.7148 0.18359-7.4297 0.27344-11.148 0.27344s-7.4336-0.089843-11.148-0.27344c-3.7148-0.18359-7.4219-0.45703-11.121-0.82031-3.6992-0.36328-7.3906-0.82031-11.066-1.3672-3.6797-0.54297-7.3398-1.1797-10.988-1.9062-3.6484-0.72266-7.2734-1.5391-10.879-2.4414-3.6094-0.90234-7.1914-1.8945-10.75-2.9766-3.5586-1.0781-7.0859-2.2422-10.586-3.4961-3.5039-1.2539-6.9688-2.5898-10.406-4.0117-3.4336-1.4258-6.832-2.9297-10.195-4.5195-3.3594-1.5898-6.6797-3.2617-9.9609-5.0156-3.2773-1.7539-6.5117-3.5859-9.7031-5.4961-3.1875-1.9102-6.3281-3.8984-9.4219-5.9648-3.0898-2.0664-6.1289-4.207-9.1172-6.4219-2.9844-2.2148-5.9141-4.5039-8.7891-6.8594-2.875-2.3594-5.6875-4.7891-8.4453-7.2852-2.7539-2.4961-5.4453-5.0586-8.0742-7.6914-2.6289-2.6289-5.1953-5.3203-7.6914-8.0742-2.4961-2.7539-4.9258-5.5703-7.2812-8.4453-2.3594-2.875-4.6484-5.8047-6.8633-8.7891-2.2148-2.9883-4.3555-6.0273-6.4219-9.1172-2.0625-3.0938-4.0547-6.2344-5.9648-9.4219-1.9102-3.1914-3.7422-6.4258-5.4961-9.7031-1.7539-3.2812-3.4258-6.6016-5.0156-9.9609-1.5898-3.3633-3.0938-6.7617-4.5156-10.195-1.4258-3.4336-2.7617-6.9023-4.0156-10.402-1.2539-3.5039-2.418-7.0312-3.4961-10.59-1.082-3.5586-2.0703-7.1406-2.9766-10.75-0.90234-3.6055-1.7188-7.2305-2.4414-10.879-0.72656-3.6484-1.3633-7.3086-1.9062-10.988-0.54688-3.6758-1-7.3672-1.3672-11.066-0.36328-3.6992-0.63672-7.4062-0.82031-11.121-0.17969-3.7148-0.27344-7.4297-0.27344-11.148-0.09375-15.297 1.3594-30.441 4.3633-45.441 2.1992-10.875 5.1914-21.531 8.9727-31.961 3.7773-10.434 8.3047-20.531 13.582-30.297 5.2773-9.7617 11.246-19.082 17.902-27.957 6.6562-8.8789 13.934-17.219 21.824-25.02 6.0586-5.9375 11.391-10.906 16.117-14.781 4.7266-3.8789 9.8164-7.7539 15.875-12.117 1.293-0.80859 2.543-1.6758 3.75-2.6094 1.207-0.93359 2.3633-1.9258 3.4727-2.9727 1.1055-1.0508 2.1562-2.1523 3.1523-3.3086s1.9336-2.3594 2.8086-3.6055c0.875-1.25 1.6836-2.543 2.4297-3.8711 0.74219-1.332 1.4219-2.6953 2.0273-4.0977 0.60938-1.3984 1.1445-2.8242 1.6055-4.2773 0.46484-1.4531 0.85547-2.9258 1.1719-4.418 0.31641-1.4922 0.55469-2.9961 0.71875-4.5117 0.16406-1.5156 0.25-3.0391 0.26172-4.5625 0.011719-1.5273-0.054687-3.0469-0.19531-4.5664-0.14453-1.5195-0.35938-3.0273-0.65625-4.5234-0.29297-1.4961-0.66016-2.9727-1.1055-4.4336-0.44141-1.4609-0.95703-2.8945-1.543-4.3008-0.58984-1.4102-1.2461-2.7812-1.9727-4.125-0.72266-1.3398-1.5156-2.6445-2.3711-3.9062-0.85937-1.2617-1.7773-2.4766-2.7539-3.6445-0.98047-1.1719-2.0156-2.2891-3.1094-3.3516-1.0898-1.0664-2.2344-2.0742-3.4258-3.0234-1.1953-0.94922-2.4336-1.8398-3.7148-2.6641-1.2812-0.82422-2.6016-1.5859-3.9609-2.2773-1.3594-0.69141-2.75-1.3125-4.1719-1.8672-1.4219-0.55078-2.8672-1.0312-4.3398-1.4375-1.4688-0.40625-2.957-0.73828-4.4609-0.99609-1.5-0.25781-3.0156-0.4375-4.5352-0.54297-1.5234-0.10547-3.0469-0.13281-4.5703-0.085937-1.5234 0.050781-3.043 0.17578-4.5547 0.37891-1.5117 0.19922-3.0117 0.47656-4.4922 0.82812-1.4844 0.35156-2.9492 0.78125-4.3906 1.2773-1.4414 0.5-2.8516 1.0703-4.2344 1.7148-1.3867 0.64062-2.7344 1.3516-4.0469 2.1289s-2.582 1.6172-3.8086 2.5234c-7.2695 4.9688-14.66 10.664-22.418 17.086-7.7539 6.4219-15.992 14.297-22.414 20.234-14.504 14.504-27.473 30.266-38.91 47.285-11.438 17.023-21.125 34.988-29.07 53.895-8.25 19.578-14.512 39.773-18.781 60.586-4.3867 20.98-6.6875 42.188-6.9062 63.617 0.023438 5.5234 0.19141 11.039 0.5 16.555 0.3125 5.5117 0.76562 11.016 1.3633 16.504 0.59766 5.4922 1.3398 10.961 2.2227 16.414 0.88281 5.4531 1.9062 10.875 3.0703 16.273 1.1641 5.3984 2.4688 10.762 3.9141 16.094 1.4453 5.332 3.0273 10.621 4.7461 15.867 1.7227 5.2461 3.5781 10.445 5.5664 15.598 1.9922 5.1523 4.1172 10.246 6.3711 15.289 2.2578 5.0391 4.6445 10.02 7.1602 14.934 2.5117 4.918 5.1562 9.7656 7.9219 14.543 2.7695 4.7773 5.6602 9.4844 8.6719 14.109 3.0156 4.6289 6.1445 9.1758 9.3945 13.641s6.6133 8.8438 10.094 13.133c3.4766 4.2891 7.0625 8.4844 10.762 12.59 3.6953 4.1016 7.4961 8.1055 11.402 12.012 3.9023 3.9062 7.9062 7.707 12.012 11.402 4.1016 3.6953 8.2969 7.2852 12.586 10.762 4.293 3.4766 8.668 6.8398 13.133 10.09s9.0117 6.3828 13.641 9.3945c4.6289 3.0156 9.332 5.9062 14.109 8.6719 4.7773 2.7695 9.625 5.4102 14.543 7.9258 4.918 2.5156 9.8945 4.9023 14.934 7.1602 5.043 2.2539 10.137 4.3789 15.289 6.3711 5.1523 1.9883 10.352 3.8438 15.598 5.5664 5.25 1.7188 10.539 3.3008 15.867 4.7461 5.332 1.4453 10.695 2.75 16.094 3.9141 5.3984 1.1641 10.824 2.1875 16.273 3.0703 5.4531 0.88281 10.922 1.625 16.414 2.2227 5.4883 0.59766 10.992 1.0508 16.504 1.3633 5.5156 0.30859 11.031 0.47656 16.555 0.5 5.5234 0.023438 11.043-0.09375 16.559-0.35938 5.5156-0.26172 11.02-0.67188 16.516-1.2227 5.4961-0.54688 10.973-1.2422 16.43-2.0781 5.4609-0.83594 10.895-1.8125 16.301-2.9297 5.4102-1.1211 10.785-2.3789 16.125-3.7773 5.3438-1.3984 10.648-2.9375 15.91-4.6133 5.2617-1.6719 10.477-3.4844 15.645-5.4297 5.168-1.9492 10.281-4.0273 15.34-6.2422 5.0625-2.2109 10.059-4.5547 14.996-7.0273 4.9375-2.4727 9.8086-5.0742 14.613-7.8008 4.8008-2.7266 9.5273-5.5781 14.184-8.5508 4.6523-2.9727 9.2266-6.0664 13.719-9.2773 4.4922-3.2109 8.8984-6.5391 13.219-9.9766 4.3203-3.4414 8.5469-6.9922 12.68-10.656 4.1328-3.6602 8.1719-7.4258 12.109-11.297s7.7734-7.8438 11.504-11.914c3.7305-4.0703 7.3555-8.2383 10.871-12.496 3.5117-4.2617 6.9141-8.6094 10.203-13.047 3.2891-4.4375 6.457-8.957 9.5117-13.559 3.0508-4.6016 5.9805-9.2812 8.7891-14.035 2.8125-4.7539 5.4922-9.5781 8.0508-14.473 2.5586-4.8945 4.9883-9.8516 7.2852-14.875 2.3008-5.0195 4.4688-10.098 6.5039-15.23 2.0352-5.1367 3.9336-10.316 5.6992-15.551 1.7656-5.2344 3.3906-10.508 4.8828-15.824 1.4883-5.3203 2.8398-10.672 4.0508-16.059 1.2109-5.3906 2.2812-10.805 3.2109-16.25 0.92969-5.4414 1.7188-10.906 2.3633-16.391s1.1445-10.984 1.5039-16.496c0.35938-5.5078 0.57031-11.027 0.64453-16.547 0.070313-5.5234-0.003906-11.043-0.21875-16.562-0.21875-5.5156-0.57812-11.027-1.082-16.527s-1.1484-10.98-1.9375-16.445c-0.78906-5.4688-1.7188-10.91-2.793-16.324-4.1719-20.828-10.391-41.023-18.66-60.59-8.0039-18.883-17.695-36.859-29.082-53.922-11.426-17.168-24.391-33.082-38.895-47.742-7.125-7.0508-14.598-13.715-22.418-19.992-7.6328-6.4219-15.148-12.117-22.297-17.086-1.9609-1.4688-4.0312-2.7695-6.2031-3.9062s-4.4219-2.0898-6.75-2.8633c-2.3281-0.76953-4.6992-1.3516-7.1211-1.7422-2.4219-0.38672-4.8594-0.57812-7.3086-0.57422zm-152.44-137.41c1.4766 0.023438 2.9492 0.11719 4.4141 0.28516 1.4688 0.16406 2.9219 0.40234 4.3672 0.70703 1.4414 0.30859 2.8672 0.68359 4.2734 1.1289 1.4102 0.44531 2.793 0.95703 4.1484 1.5391 1.3594 0.57812 2.6836 1.2227 3.9805 1.9297 1.293 0.70703 2.5508 1.4766 3.7734 2.3086 1.2188 0.82812 2.3984 1.7148 3.5312 2.6602 1.1367 0.94141 2.2227 1.9375 3.2617 2.9883 1.0391 1.0508 2.0234 2.1484 2.9531 3.293 0.93359 1.1445 1.8086 2.332 2.625 3.5586 0.81641 1.2305 1.5703 2.4961 2.2656 3.8008 0.69141 1.3008 1.3203 2.6367 1.8867 4 0.56641 1.3633 1.0625 2.75 1.4922 4.1602 0.42969 1.4141 0.79297 2.8438 1.082 4.2891 0.29297 1.4492 0.51562 2.9062 0.66406 4.375s0.23047 2.9414 0.23828 4.4141v318.08c0 1.4883-0.074219 2.9766-0.21875 4.457-0.14844 1.4805-0.36719 2.9492-0.65625 4.4102-0.28906 1.4609-0.65234 2.9023-1.082 4.3242-0.43359 1.4258-0.93359 2.8242-1.5039 4.1992-0.57031 1.375-1.2031 2.7188-1.9062 4.0312-0.69922 1.3125-1.4648 2.5859-2.293 3.8242-0.82422 1.2383-1.7109 2.4336-2.6562 3.582-0.94141 1.1523-1.9414 2.2539-2.9922 3.3047-1.0547 1.0508-2.1562 2.0508-3.3047 2.9961-1.1523 0.94141-2.3438 1.8281-3.582 2.6562-1.2383 0.82422-2.5117 1.5898-3.8242 2.293-1.3125 0.69922-2.6562 1.3359-4.0312 1.9062-1.375 0.56641-2.7773 1.0703-4.1992 1.5-1.4258 0.43359-2.8672 0.79297-4.3281 1.0859-1.457 0.28906-2.9297 0.50781-4.4102 0.65234-1.4805 0.14453-2.9648 0.21875-4.4531 0.21875s-2.9727-0.074218-4.4531-0.21875c-1.4805-0.14453-2.9531-0.36328-4.4102-0.65234-1.4609-0.29297-2.9023-0.65234-4.3281-1.0859-1.4219-0.42969-2.8242-0.93359-4.1992-1.5-1.3711-0.57031-2.7148-1.207-4.0273-1.9062-1.3125-0.70312-2.5898-1.4688-3.8281-2.293-1.2344-0.82812-2.4297-1.7148-3.582-2.6562-1.1484-0.94531-2.25-1.9453-3.3008-2.9961-1.0547-1.0508-2.0508-2.1523-2.9961-3.3047-0.94531-1.1484-1.8281-2.3438-2.6562-3.582s-1.5898-2.5117-2.293-3.8242-1.3359-2.6562-1.9062-4.0312c-0.57031-1.375-1.0703-2.7734-1.5039-4.1992-0.42969-1.4219-0.79297-2.8633-1.082-4.3242-0.28906-1.4609-0.50781-2.9297-0.65234-4.4102-0.14844-1.4805-0.21875-2.9688-0.21875-4.457v-318.08c0.003906-1.4961 0.078125-2.9883 0.23047-4.4805 0.15234-1.4883 0.375-2.9648 0.67188-4.4336s0.66406-2.918 1.1055-4.3477c0.44141-1.4336 0.94922-2.8398 1.5273-4.2188 0.57812-1.3828 1.2227-2.7305 1.9336-4.0469 0.71484-1.3203 1.4883-2.5977 2.3242-3.8398 0.83984-1.2383 1.7344-2.4375 2.6914-3.5898 0.95312-1.1523 1.9648-2.2539 3.0312-3.3086 1.0625-1.0547 2.1758-2.0508 3.3398-2.9961 1.1602-0.94141 2.3672-1.8242 3.6172-2.6484s2.5391-1.5859 3.8633-2.2852c1.3242-0.69531 2.6797-1.3281 4.0664-1.8906s2.8008-1.0586 4.2344-1.4844c1.4375-0.42188 2.8906-0.77734 4.3594-1.0586 1.4727-0.28125 2.9531-0.48828 4.4453-0.625 1.4883-0.13281 2.9844-0.19531 4.4805-0.18359z" fill="#fff" fill-rule="evenodd"/>
</g>
</svg>
