<svg id="Layer_1" data-name="Layer 1" xmlns="http://www.w3.org/2000/svg" color="currentColor" viewBox="0 0 2160 2160"><defs><style></style></defs><title>my sale logo 1</title><path class="cls-1" d="M863.88,2095.28c42.74-96.46,82.31-186.18,122.2-275.75Q1259.92,1204.76,1533.93,590c33.89-76,68.51-151.77,101.66-228.14,8-18.3,17.72-27.07,38.61-25.81,28.73,1.74,57.65.44,93.59.44-47.75,108-93.64,211.87-141.54,320.28,167.29,3.8,324.86,30,465.78,125.47-38.38,87.17-75.93,172.47-113.74,258.36-48.76-21.85-94-44.49-141.07-62.69-82.39-31.91-168.41-43.07-255.72-28.61-29.63,4.9-61.35,16.24-85,34.08-43.08,32.51-34.62,87.33,15.51,107.8,43.71,17.84,89.72,30.37,135.25,43.39,78.88,22.54,159.64,39.42,237,66.22,163,56.49,244.64,159.4,247.85,302.53,3.58,160-83.57,289.65-236.7,354.32-121.93,51.48-249.46,58.6-378.49,46-155.26-15.22-221.11-38.92-388.56-129q-39.64,88-79,175.53c-17.47,39.06-35.52,77.9-51.34,117.63-8.64,21.69-21.43,29.68-44.66,27.94C925.8,2093.7,898,2095.28,863.88,2095.28Zm383.33-589c126,88.91,263.43,127.62,413.61,117.37,36.93-2.52,75.82-12.56,108.72-29.2,47.94-24.24,47.47-76.67,1.78-104.55a301.28,301.28,0,0,0-75.91-32.85c-125.39-34.55-251.29-67.25-380.56-101.55Q1284.07,1424.15,1247.21,1506.33Z"/><path class="cls-1" d="M1143.71,1162.23v-838l-5.89-1.72q-58.38,99.51-116.73,199-161,275.73-321.75,551.57c-30.66,52.56-72.18,52.38-102.81.14Q384.09,711,171.23,349.06c-4-6.74-8.82-13-18-26.34-.84,19.15-1.81,31-1.81,42.91,0,284.76-.45,569.53.68,854.29.12,31-6.89,42-39.91,41.15-84.38-2.1-84.43-.46-84.42-86.34q.12-529.59.25-1059.18c0-13.79,0-27.59,0-47.18,34.11,0,66.17-2,97.69,1.27,9,.92,18.09,16.11,24.2,26.49Q394.43,511.94,638.25,928.18c2.89,4.93,6,9.76,11.89,19.46,18.46-31.06,35.39-59,51.81-87.29Q924.16,477.73,1146.25,95c13.37-23,94.59-41.57,114.06-24.21,6.68,5.94,7.22,21,7.26,31.83.49,133.12.37,266.24.4,399.36,0,123.86.67,247.73-.55,371.58A170.31,170.31,0,0,1,1254,936.93c-32.44,76.24-67.11,151.54-101,227.18Z"/></svg>